<?xml version="1.0" encoding="utf-8"?>
<!-- Generator: Adobe Illustrator 22.0.0, SVG Export Plug-In . SVG Version: 6.00 Build 0)  -->
<svg version="1.1" id="Capa_1" xmlns="http://www.w3.org/2000/svg" xmlns:xlink="http://www.w3.org/1999/xlink" x="0px" y="0px"
	 viewBox="0 0 297 297" style="enable-background:new 0 0 297 297;" xml:space="preserve">
<style type="text/css">
	.st0{fill:#FFFFFF;}
</style>
<g>
	<path class="st0" d="M141.2,180.1c1.9,1.7,4.2,2.5,6.6,2.5c2.4,0,4.7-0.8,6.6-2.5c2.4-2.1,58.4-52,58.4-103.8c0-35.8-29.1-65-65-65
		c-35.8,0-65,29.2-65,65C82.8,128.1,138.8,178,141.2,180.1z M147.8,59.3c9.3,0,16.8,7.6,16.8,17c0,9.4-7.5,17-16.8,17
		c-9.3,0-16.8-7.6-16.8-17C130.9,66.9,138.5,59.3,147.8,59.3z"/>
	<path class="st0" d="M273.4,180.1l-7.5-26.4c-1.2-4.3-5.1-7.2-9.6-7.2h-53.7c-1.9,2.9-4,5.8-6.2,8.7
		c-15.1,20.2-30.4,33.9-32.1,35.4c-4.4,3.8-10,6-15.8,6c-5.8,0-11.4-2.1-15.8-6c-1.7-1.5-17-15.2-32.1-35.4
		c-2.2-2.9-4.2-5.8-6.2-8.7H40.8c-4.5,0-8.4,3-9.6,7.2l-9,31.4l200.5,36.7L273.4,180.1z"/>
	<path class="st0" d="M296.6,261.6l-19.2-67.4L182,274.3H287c3.1,0,6.1-1.5,8-4C296.9,267.8,297.5,264.6,296.6,261.6z"/>
	<path class="st0" d="M48.8,204.2l-30.4-5.6l-18,63c-0.9,3-0.3,6.2,1.6,8.7c1.9,2.5,4.8,4,8,4h38.8V204.2z"/>
	<polygon class="st0" points="62.7,206.8 62.7,274.3 160.3,274.3 208.9,233.5 	"/>
</g>
</svg>
