<?xml version="1.0" encoding="utf-8"?>
<!-- Generator: Adobe Illustrator 22.0.0, SVG Export Plug-In . SVG Version: 6.00 Build 0)  -->
<svg version="1.1" id="Layer_1" xmlns="http://www.w3.org/2000/svg" xmlns:xlink="http://www.w3.org/1999/xlink" x="0px" y="0px"
	 viewBox="0 0 462 462" style="enable-background:new 0 0 462 462;" xml:space="preserve">
<style type="text/css">
	.st0{fill:#FFFFFF;}
</style>
<path class="st0" d="M455,193.8L7.2,286.4V366L455,273.4V193.8z"/>
<path class="st0" d="M7.2,462L455,369.3v-79.6L7.2,382.4V462z"/>
<path class="st0" d="M367,112c0,22.1-17.9,40-40,40c-22.1,0-40-17.9-40-40s17.9-40,40-40C349.1,72,367,89.9,367,112z"/>
<path class="st0" d="M232.9,96.9L29.1,265.5l425.1-88c-4.6-19.8-30.3-39.2-72.3-54.4c-3.8,19.9-18.1,36.3-37.3,42.7
	c-19.2,6.4-40.5,1.9-55.4-11.8c-15-13.7-21.4-34.4-16.8-54.1C259.6,98.6,246.5,97.5,232.9,96.9z"/>
<path class="st0" d="M367,8c0,4.4-3.6,8-8,8c-9.8,0-20.7,16.1-23.4,40.7c-2.9-0.5-5.7-0.7-8.6-0.7c-2.5,0-5,0.2-7.4,0.6
	C322.7,23.8,339,0,359,0C363.5,0,367,3.6,367,8z"/>
</svg>
