<?xml version="1.0" encoding="utf-8"?>
<!-- Generator: Adobe Illustrator 22.0.0, SVG Export Plug-In . SVG Version: 6.00 Build 0)  -->
<svg version="1.1" id="Capa_1" xmlns="http://www.w3.org/2000/svg" xmlns:xlink="http://www.w3.org/1999/xlink" x="0px" y="0px"
	 viewBox="0 0 45.6 45.6" style="enable-background:new 0 0 45.6 45.6;" xml:space="preserve">
<style type="text/css">
	.st0{fill:#FFFFFF;}
</style>
<g>
	<g>
		<path class="st0" d="M32.8,25L29.1,24c1.6-1.4,2.8-3.3,3.7-5.4c1.3-0.2,2.4-1.2,2.6-3.5c0.2-2.2-0.5-3.1-1.5-3.5
			c0-0.7-0.1-1.4-0.2-2c-0.4-7-3.9-10.1-9.6-9.4c-0.7,0.1-1.5,0.1-2.2,0c-3-0.5-6.1,1.8-7.6,4.2c-2,3.1-1.2,7.2-1.2,7.3
			c-0.9,0.4-1.5,1.3-1.3,3.4c0.2,2.2,1.3,3.2,2.5,3.5c0.9,2.1,2.2,4.1,3.7,5.5L14.3,25c-5.1,1.3-8.7,5.9-8.7,11.1v6.3
			c0,1.8,1.5,3.3,3.3,3.3h29.4c1.8,0,3.3-1.5,3.3-3.3v-6.3C41.6,30.8,38,26.2,32.8,25z M11.8,43.7H8.8c-0.7,0-1.3-0.6-1.3-1.3v-6.3
			c0-3.2,1.7-6.2,4.2-7.9V43.7z M15.1,12.7c0-0.3,0-0.6,0.1-0.9c0.2-0.8,0.5-1.4,0.8-1.9c0.5-0.9,1.3-1.6,2.3-1.9c0,0,0.1,0,0.1,0
			c0.3-0.1,0.7,0,0.9,0.3c0.2,0.3,0.2,0.7-0.1,1c0,0.1-0.1,0.1-0.1,0.1C19,9.6,19,9.9,19.1,10s0.3,0.3,0.5,0.3
			c2.1-0.3,5.7-1.3,8.4-3.6c0.7-0.6,1.8-0.6,2.5,0.1c0.6,0.7,1,1.5,1.1,2.4c0.2,1,0.2,2.2,0.2,3.5c0,5.2-3.7,11.6-8.4,11.6
			C18.9,24.3,15.1,18,15.1,12.7z M24.3,43.7h-1.4L16,26.6l4.3-1.1c1,0.5,2.1,0.8,3.2,0.8c1.2,0,2.3-0.3,3.3-0.8l4.4,1.1L24.3,43.7z
			 M39.6,42.4c0,0.7-0.6,1.3-1.3,1.3h-2.9V28.3c2.5,1.7,4.2,4.6,4.2,7.8L39.6,42.4L39.6,42.4z"/>
		<circle class="st0" cx="23.5" cy="34.2" r="1.1"/>
		<circle class="st0" cx="23.5" cy="38.3" r="1.1"/>
		<path class="st0" d="M26.9,27.2l-2.1,0.6c0,0-0.1,0-0.1,0c-0.3-0.3-0.8-0.5-1.2-0.5s-0.9,0.2-1.2,0.5c0,0-0.1,0-0.1,0l-2-0.6
			c-0.6-0.2-1.2,0.3-1.2,0.9v2.3c0,0.6,0.6,1.1,1.2,0.9l2.1-0.6c0.3,0.3,0.8,0.5,1.2,0.5c0.5,0,0.9-0.2,1.2-0.5l2.1,0.6
			c0.6,0.2,1.2-0.3,1.2-0.9v-2.3C28.2,27.5,27.6,27.1,26.9,27.2z"/>
	</g>
</g>
</svg>
